<?xml version="1.0" standalone="no"?><!DOCTYPE svg PUBLIC "-//W3C//DTD SVG 1.1//EN" "http://www.w3.org/Graphics/SVG/1.1/DTD/svg11.dtd"><svg class="icon" width="200px" height="200.00px" viewBox="0 0 1024 1024" version="1.1" xmlns="http://www.w3.org/2000/svg"><path d="M816.21178 310.201225l-33.465752 66.201789a324.860554 324.860554 0 0 1 46.607851 168.137951c0 180.283013-146.15257 326.450032-326.442807 326.450032-23.343663 0-46.109333-2.499817-68.065815-7.159879l-49.266616 48.659724 12.499083-58.810713c-128.848926-43.674541-221.62391-165.54421-221.62391-309.139164 0-180.290238 146.159795-326.450032 326.450033-326.450033 100.801851 0 190.910846 45.704739 250.798069 117.513053l16.321057-24.362374v-52.431124C700.093134 193.417887 606.205515 153.312449 502.903847 153.312449c-216.067959 0-391.228516 175.160557-391.228516 391.228516s175.160557 391.228516 391.228516 391.228515c216.060734 0 391.228516-175.160557 391.228515-391.228515a389.248892 389.248892 0 0 0-77.920582-234.33974z" fill="#ffffff" /><path d="M802.354415 544.540965a298.207885 298.207885 0 0 0-34.274941-139.101064l-23.459261 46.376654v29.268084a250.342901 250.342901 0 0 1 8.149691 63.449101c0 76.338329-34.282166 144.642565-88.252195 190.484576l0.491294 3.02001-6.726385 2.102447a248.702848 248.702848 0 0 1-153.081252 54.208449l-46.904073 46.318856a301.639714 301.639714 0 0 0 44.599329 3.323455c165.392487-0.007225 299.457794-134.072531 299.457793-299.450568zM738.804166 360.204781c-54.815342-70.023763-140.061976-115.09271-235.878645-115.09271-165.370813 0-299.450569 134.058081-299.450568 299.436119 0 131.832811 85.246634 243.688765 203.583326 283.671379l39.224-40.34386c-110.699969-25.670082-193.222815-124.824655-193.222815-243.341969 0-137.988429 111.863178-249.858832 249.858833-249.858832 87.638077 0 164.684447 45.155646 209.290999 113.445432l26.59487-47.915559z" fill="#ffffff" /><path d="M502.925521 544.53374m-101.141421 0a101.141422 101.141422 0 1 0 202.282843 0 101.141422 101.141422 0 1 0-202.282843 0Z" fill="#ffffff" /><path d="M521.067254 710.952163l22.086529-33.263455a160.602376 160.602376 0 0 1-40.235486 5.115232c-82.522846 0-149.425451-61.895747-149.425451-138.2702 0-76.360003 66.902605-138.25575 149.425451-138.255751 72.552479 0 133.01047 47.836085 146.578838 111.277962L661.656648 499.240821l19.00872-34.267717C650.2413 397.102362 582.139362 349.78647 502.932746 349.78647c-107.557136 0-194.747269 87.175684-194.747269 194.740045 0 104.486552 82.291649 189.733187 185.578867 194.508848l27.30291-28.0832zM620.243502 687.370079c33.870347-14.717128 73.672339-113.980075 70.291084-110.584371-3.381255 3.381255-70.291085 56.729941-70.291084 56.729941v53.85443z" fill="#ffffff" /></svg>